<mxfile host="app.diagrams.net" modified="2024-01-12T12:12:50.049Z" agent="Mozilla/5.0 (X11; Linux x86_64) AppleWebKit/537.36 (KHTML, like Gecko) Chrome/119.0.0.0 Safari/537.36" version="22.1.18" etag="uDTKDjLXDGHAkRoE3xt1" type="github">
  <diagram name="Страница — 1" id="lkev4RYW_NYC7vFXTvdH">
    <mxGraphModel>
      <root>
        <mxCell id="0" />
        <mxCell id="1" parent="0" />
      </root>
    </mxGraphModel>
  </diagram>
</mxfile>
